<?xml version="1.0" encoding="utf-8"?>
<!-- Generator: Adobe Illustrator 16.0.4, SVG Export Plug-In . SVG Version: 6.00 Build 0)  -->
<!DOCTYPE svg PUBLIC "-//W3C//DTD SVG 1.1//EN" "http://www.w3.org/Graphics/SVG/1.1/DTD/svg11.dtd">
<svg version="1.1" id="Layer_1" xmlns="http://www.w3.org/2000/svg" xmlns:xlink="http://www.w3.org/1999/xlink" x="0px" y="0px"
	 width="24px" height="24px" viewBox="0 0 24 24" enable-background="new 0 0 24 24" xml:space="preserve">
<path d="M8.28,22.601H6.56c-0.305-0.001-0.851-0.354-0.867-0.369C2.95,19.535,1.4,15.848,1.4,11.998
	c0-3.859,1.559-7.559,4.318-10.257C5.719,1.74,6.255,1.4,6.56,1.4h1.72c0.63,0,1.377,0.46,1.659,1.026l0.12,0.242
	c0.281,0.563,0.256,1.472-0.056,2.019L8.848,6.708C8.535,7.255,7.764,7.712,7.134,7.712H5.986c-1.524,2.65-1.524,5.925-0.001,8.576
	h1.149c0.63,0,1.401,0.457,1.714,1.004l1.154,2.022c0.312,0.545,0.338,1.452,0.057,2.02l-0.12,0.241
	C9.655,22.138,8.91,22.601,8.28,22.601z M22.6,6.7v10.601c0,1.463-1.187,2.649-2.649,2.649h-8.418
	c-0.052-0.465-0.165-0.918-0.379-1.294l-1.154-2.021c-0.555-0.97-1.758-1.672-2.864-1.672H6.796c-0.836-1.882-0.836-4.046,0-5.926
	h0.338c1.106,0,2.31-0.703,2.864-1.672l1.156-2.021c0.215-0.376,0.328-0.831,0.379-1.294h8.417C21.413,4.05,22.6,5.237,22.6,6.7z
	 M14.981,16.638c0-0.549-0.445-0.993-0.994-0.993s-0.993,0.444-0.993,0.993s0.444,0.994,0.993,0.994S14.981,17.187,14.981,16.638z
	 M14.981,13.987c0-0.548-0.445-0.993-0.994-0.993s-0.993,0.445-0.993,0.993c0,0.549,0.444,0.994,0.993,0.994
	S14.981,14.536,14.981,13.987z M14.981,11.338c0-0.549-0.445-0.994-0.994-0.994s-0.993,0.445-0.993,0.994s0.444,0.994,0.993,0.994
	S14.981,11.887,14.981,11.338z M17.631,16.638c0-0.549-0.444-0.993-0.993-0.993s-0.994,0.444-0.994,0.993s0.445,0.994,0.994,0.994
	S17.631,17.187,17.631,16.638z M17.631,13.987c0-0.548-0.444-0.993-0.993-0.993s-0.994,0.445-0.994,0.993
	c0,0.549,0.445,0.994,0.994,0.994S17.631,14.536,17.631,13.987z M17.631,11.338c0-0.549-0.444-0.994-0.993-0.994
	s-0.994,0.445-0.994,0.994s0.445,0.994,0.994,0.994S17.631,11.887,17.631,11.338z M20.281,16.638c0-0.549-0.445-0.993-0.994-0.993
	c-0.548,0-0.993,0.444-0.993,0.993s0.445,0.994,0.993,0.994C19.836,17.632,20.281,17.187,20.281,16.638z M20.281,13.987
	c0-0.548-0.445-0.993-0.994-0.993c-0.548,0-0.993,0.445-0.993,0.993c0,0.549,0.445,0.994,0.993,0.994
	C19.836,14.981,20.281,14.536,20.281,13.987z M20.281,11.338c0-0.549-0.445-0.994-0.994-0.994c-0.548,0-0.993,0.445-0.993,0.994
	s0.445,0.994,0.993,0.994C19.836,12.332,20.281,11.887,20.281,11.338z M20.281,7.363c0-0.366-0.297-0.663-0.662-0.663h-5.963
	c-0.367,0-0.662,0.296-0.662,0.663v1.325c0,0.366,0.295,0.663,0.662,0.663h5.963c0.365,0,0.662-0.296,0.662-0.663V7.363z"/>
</svg>
